<svg width="423" height="99" viewBox="0 0 423 99" fill="none" xmlns="http://www.w3.org/2000/svg">
<path d="M413.211 47.2843L410.517 52.9183C403.173 68.598 398.524 67.2516 399.5 61.1241L405.253 26.3366C408.192 8.69604 404.398 0 394.24 0C378.942 0 363.396 21.5588 349.198 53.2842L347.239 57.5718L351.154 26.3366C353.358 8.20584 349.93 0 340.506 0C328.513 0 314.191 12.8628 305.013 34.5424C300.729 13.8398 283.348 0 260.827 0C237.206 0 218.355 14.9444 209.667 35.8921L207.587 40.915C198.039 63.8202 180.906 73.0098 167.564 73.0098C158.017 73.0098 150.918 69.0915 149.328 58.0654C188.86 56.2288 204.037 42.1405 204.037 25.2353C204.037 11.6372 193.634 0 172.214 0C150.794 0 131.578 11.3921 119.829 36.6274L113.465 50.3464C108.446 61.1275 105.021 65.2908 102.817 65.2908C101.103 65.2908 100.492 64.1895 101.103 60.3921L106.732 26.3399C109.671 8.6994 105.877 0.00336082 95.715 0.00336082C80.4173 0.00336082 64.8712 21.5622 50.6738 53.2876L48.7147 57.5752L52.6297 26.3399C54.8338 8.2092 51.4052 0.00336082 41.9816 0.00336082C28.3948 0.00336082 11.9967 16.9086 2.32486 44.3465L0 50.9608H9.79258L12.3623 45.4477C18.9712 31.6046 21.7859 32.7092 21.1753 38.8334L16.2337 71.6634C13.295 89.304 17.0892 98 27.2508 98C43.3772 98 52.9048 69.7362 68.2998 44.9609C70.6247 41.4086 72.4597 42.2648 71.9699 45.206L66.9512 75.585C64.7471 88.938 69.521 98 82.249 98C93.7525 98 105.749 86.7321 117.132 62.5981C120.56 83.3007 137.448 98 160.214 98C182.979 98 199.871 80.3595 206.969 61.1274C210.639 82.8105 229.366 98 252.255 98C273.062 98 293.868 84.647 302.56 62.8432L309.538 45.4477C315.168 31.3595 320.31 32.7092 319.696 38.8334L314.755 71.6634C311.816 89.304 315.61 98 325.772 98C341.898 98 351.426 69.7362 366.821 44.9609C369.146 41.4086 370.981 42.2648 370.494 45.206L365.476 75.585C363.272 88.938 368.17 98 379.918 98C397.054 98 411.496 77.5425 421.286 51.8203L423 47.2877H413.207L413.211 47.2843ZM169.523 21.072C173.928 21.072 175.887 23.3987 175.887 27.4412C175.887 33.0752 172.093 42.0197 149.452 46.183C151.656 31.1177 160.835 21.072 169.523 21.072ZM251.896 75.5817C244.308 75.5817 239.289 68.9673 239.289 58.3105C239.289 46.4281 246.022 22.4183 261.199 22.4183C268.788 22.4183 273.806 29.0327 273.806 39.6895C273.806 51.5719 267.073 75.5817 251.896 75.5817Z" fill="#008FFF"/>
</svg>
